<svg width="1420" height="570" viewBox="0 0 1420 570" fill="none" xmlns="http://www.w3.org/2000/svg">
<rect width="1420" height="570" rx="20" fill="#B9B9B9"/>
<path d="M568.72 400.189H852.204C863.64 400.189 871.133 388.192 866.139 377.878L808.775 259.412C804.187 249.938 791.724 247.692 784.133 254.971L741.027 296.306C734.256 302.799 723.331 301.826 717.807 294.238L659.74 214.465C652.864 205.018 638.433 206.293 633.311 216.8L554.804 377.841C549.774 388.158 557.267 400.189 568.72 400.189Z" fill="white"/>
<path d="M762.317 193.657C762.317 207.379 751.221 218.502 737.533 218.502C723.845 218.502 712.749 207.379 712.749 193.657C712.749 179.934 723.845 168.811 737.533 168.811C751.221 168.811 762.317 179.934 762.317 193.657Z" fill="white"/>
</svg>
