<svg width="30" height="31" viewBox="0 0 30 31" fill="none" xmlns="http://www.w3.org/2000/svg">
<path d="M28.7214 11.1288L26.1356 8.54305C25.927 8.33724 25.6488 8.21707 25.356 8.20622C25.0632 8.19537 24.7769 8.29464 24.5536 8.48445C24.2089 8.77785 23.7666 8.93105 23.3142 8.91369C22.8619 8.89632 22.4326 8.70967 22.1114 8.3907C21.7926 8.06954 21.6061 7.64036 21.5887 7.18817C21.5713 6.73598 21.7244 6.29376 22.0177 5.9491C22.2075 5.72583 22.3067 5.43955 22.2959 5.1467C22.285 4.85385 22.1649 4.57569 21.9591 4.36707L19.371 1.7784C19.1523 1.5601 18.8559 1.4375 18.5469 1.4375C18.2378 1.4375 17.9415 1.5601 17.7227 1.7784L13.6007 5.89988C13.3462 6.15529 13.1542 6.46614 13.0399 6.80809C13.0177 6.87383 12.9806 6.93356 12.9315 6.98264C12.8824 7.03172 12.8227 7.06883 12.7569 7.09109C12.4148 7.20542 12.1039 7.39756 11.8487 7.65242L1.2784 18.2227C1.0601 18.4415 0.9375 18.7378 0.9375 19.0469C0.9375 19.3559 1.0601 19.6523 1.2784 19.871L3.86707 22.4567C4.07569 22.6625 4.35385 22.7827 4.6467 22.7935C4.93955 22.8044 5.22583 22.7051 5.4491 22.5153C5.79298 22.2195 6.23593 22.0646 6.68919 22.0817C7.14245 22.0987 7.57254 22.2864 7.89326 22.6071C8.21399 22.9278 8.40167 23.3579 8.41869 23.8112C8.43571 24.2644 8.28081 24.7074 7.98504 25.0513C7.79523 25.2745 7.69596 25.5608 7.70681 25.8537C7.71765 26.1465 7.83783 26.4247 8.04363 26.6333L10.6294 29.219C10.8481 29.4373 11.1445 29.5599 11.4535 29.5599C11.7625 29.5599 12.0589 29.4373 12.2776 29.219L22.8479 18.6487C23.1026 18.3936 23.2948 18.0829 23.4093 17.7411C23.4314 17.6751 23.4686 17.6152 23.5178 17.566C23.567 17.5168 23.6269 17.4797 23.6929 17.4575C24.0346 17.3432 24.3453 17.1512 24.6005 16.8968L28.722 12.7747C28.9395 12.556 29.0615 12.2601 29.0614 11.9516C29.0613 11.6432 28.939 11.3473 28.7214 11.1288ZM15.3403 9.39149C15.2533 9.47856 15.1499 9.54764 15.0361 9.59476C14.9224 9.64189 14.8005 9.66615 14.6773 9.66615C14.5542 9.66615 14.4323 9.64189 14.3185 9.59476C14.2048 9.54764 14.1014 9.47856 14.0143 9.39149L13.3399 8.71707C13.1684 8.54037 13.0733 8.30327 13.0751 8.05701C13.077 7.81075 13.1757 7.57511 13.3498 7.40101C13.524 7.22691 13.7597 7.12833 14.006 7.12659C14.2522 7.12484 14.4893 7.22007 14.6659 7.39168L15.3403 8.06551C15.4274 8.15257 15.4965 8.25593 15.5436 8.36968C15.5907 8.48344 15.615 8.60536 15.615 8.7285C15.615 8.85163 15.5907 8.97356 15.5436 9.08731C15.4965 9.20107 15.4274 9.30443 15.3403 9.39149ZM17.9184 11.9696C17.7426 12.1453 17.5043 12.244 17.2557 12.244C17.0072 12.244 16.7688 12.1453 16.593 11.9696L15.9485 11.3251C15.8615 11.238 15.7924 11.1347 15.7453 11.0209C15.6982 10.9071 15.6739 10.7852 15.6739 10.6621C15.6739 10.539 15.6982 10.417 15.7453 10.3033C15.7924 10.1895 15.8615 10.0862 15.9485 9.9991C16.1244 9.82327 16.3628 9.72448 16.6115 9.72448C16.7346 9.72448 16.8566 9.74874 16.9703 9.79586C17.0841 9.84297 17.1874 9.91204 17.2745 9.9991L17.919 10.6436C18.0064 10.7307 18.0757 10.8341 18.1231 10.948C18.1704 11.0619 18.1948 11.184 18.1949 11.3074C18.1949 11.4307 18.1706 11.5529 18.1234 11.6668C18.0762 11.7807 18.0069 11.8842 17.9196 11.9714L17.9184 11.9696ZM20.4966 14.5477C20.4095 14.6348 20.3061 14.7039 20.1924 14.751C20.0786 14.7981 19.9567 14.8224 19.8336 14.8224C19.7104 14.8224 19.5885 14.7981 19.4748 14.751C19.361 14.7039 19.2576 14.6348 19.1706 14.5477L18.5261 13.9032C18.3545 13.7265 18.2594 13.4894 18.2613 13.2431C18.2631 12.9969 18.3618 12.7612 18.536 12.5871C18.7101 12.413 18.9458 12.3145 19.1921 12.3127C19.4383 12.311 19.6754 12.4062 19.852 12.5778L20.4966 13.2223C20.5842 13.3093 20.6538 13.4126 20.7014 13.5265C20.749 13.6403 20.7736 13.7625 20.7739 13.8859C20.7741 14.0093 20.75 14.1316 20.703 14.2456C20.6559 14.3597 20.5867 14.4634 20.4995 14.5507L20.4966 14.5477ZM23.0999 17.1575C23.0128 17.2446 22.9095 17.3137 22.7957 17.3608C22.682 17.4079 22.56 17.4322 22.4369 17.4322C22.3138 17.4322 22.1918 17.4079 22.0781 17.3608C21.9643 17.3137 21.861 17.2446 21.7739 17.1575L21.1036 16.4837C21.0147 16.3969 20.9439 16.2933 20.8954 16.1789C20.8469 16.0645 20.8216 15.9416 20.821 15.8173C20.8204 15.6931 20.8445 15.57 20.892 15.4551C20.9394 15.3403 21.0091 15.236 21.0972 15.1483C21.1853 15.0607 21.2899 14.9914 21.405 14.9446C21.5201 14.8977 21.6433 14.8742 21.7676 14.8754C21.8918 14.8766 22.0146 14.9025 22.1287 14.9516C22.2429 15.0006 22.3461 15.0719 22.4325 15.1612L23.1034 15.8345C23.1904 15.9215 23.2595 16.0249 23.3065 16.1387C23.3536 16.2525 23.3778 16.3744 23.3778 16.4976C23.3777 16.6207 23.3534 16.7426 23.3062 16.8563C23.2591 16.9701 23.1899 17.0734 23.1028 17.1604L23.0999 17.1575Z" fill="#2D2C3C"/>
</svg>
